<svg width="24" height="25" viewBox="0 0 24 25" fill="none" xmlns="http://www.w3.org/2000/svg">
<g id="logos:whatsapp-icon" clip-path="url(#clip0_413_1073)">
<path id="Vector" d="M0.514995 12.3553C0.514433 14.387 1.0453 16.3708 2.05473 18.1194L0.418457 24.0937L6.53241 22.4906C8.22345 23.4111 10.1181 23.8935 12.0435 23.8937H12.0486C18.4046 23.8937 23.5786 18.7216 23.5813 12.3644C23.5825 9.28389 22.3839 6.38719 20.2063 4.20787C18.0291 2.02873 15.1334 0.828005 12.0481 0.826599C5.69131 0.826599 0.517713 5.99841 0.515089 12.3553" fill="url(#paint0_linear_413_1073)"/>
<path id="Vector_2" d="M0.103217 12.3515C0.102561 14.4564 0.652452 16.5111 1.69787 18.3223L0.00292969 24.5107L6.3361 22.8502C8.0811 23.8016 10.0458 24.3032 12.045 24.304H12.0501C18.6342 24.304 23.994 18.9458 23.9968 12.3611C23.998 9.16992 22.7563 6.16909 20.5009 3.91169C18.2451 1.65458 15.2459 0.410644 12.0501 0.409332C5.46492 0.409332 0.105841 5.76672 0.103217 12.3515ZM3.87485 18.0104L3.63838 17.635C2.64432 16.0544 2.11964 14.2279 2.12039 12.3523C2.12245 6.87916 6.5767 2.42632 12.0539 2.42632C14.7063 2.42744 17.1991 3.46143 19.074 5.33746C20.9488 7.21367 21.9804 9.70772 21.9798 12.3604C21.9773 17.8335 17.523 22.2869 12.0501 22.2869H12.0462C10.2642 22.286 8.51646 21.8074 6.99228 20.903L6.62956 20.6879L2.87133 21.6733L3.87485 18.0104Z" fill="url(#paint1_linear_413_1073)"/>
<path id="Vector_3" d="M9.06427 7.35893C8.84064 6.8619 8.60529 6.85187 8.39262 6.84316C8.21848 6.83566 8.01941 6.83622 7.82052 6.83622C7.62144 6.83622 7.298 6.91111 7.0246 7.20963C6.75092 7.50843 5.97974 8.23049 5.97974 9.69909C5.97974 11.1677 7.04943 12.5871 7.19855 12.7864C7.34786 12.9854 9.26362 16.0956 12.2977 17.2921C14.8193 18.2865 15.3325 18.0887 15.8798 18.0388C16.4271 17.9892 17.6459 17.317 17.8946 16.6199C18.1434 15.923 18.1434 15.3256 18.0688 15.2007C17.9942 15.0763 17.7951 15.0016 17.4966 14.8524C17.1981 14.7032 15.7304 13.981 15.4569 13.8813C15.1832 13.7818 14.9842 13.7321 14.7851 14.031C14.5861 14.3294 14.0144 15.0016 13.8402 15.2007C13.6661 15.4003 13.4919 15.4251 13.1935 15.2758C12.8948 15.126 11.9334 14.8112 10.7929 13.7944C9.90546 13.0031 9.30636 12.026 9.13222 11.7271C8.95807 11.4287 9.11357 11.2669 9.26325 11.1182C9.39737 10.9844 9.56186 10.7696 9.71126 10.5954C9.8601 10.4211 9.90977 10.2967 10.0093 10.0976C10.1089 9.89835 10.0591 9.72402 9.98456 9.57471C9.90977 9.42541 9.3297 7.94913 9.06427 7.35893Z" fill="white"/>
</g>
<defs>
<linearGradient id="paint0_linear_413_1073" x1="1158.56" y1="2327.53" x2="1158.56" y2="0.826599" gradientUnits="userSpaceOnUse">
<stop stop-color="#1FAF38"/>
<stop offset="1" stop-color="#60D669"/>
</linearGradient>
<linearGradient id="paint1_linear_413_1073" x1="1199.7" y1="2410.55" x2="1199.7" y2="0.409332" gradientUnits="userSpaceOnUse">
<stop stop-color="#F9F9F9"/>
<stop offset="1" stop-color="white"/>
</linearGradient>
<clipPath id="clip0_413_1073">
<rect width="24" height="24.1814" fill="white" transform="translate(0 0.409332)"/>
</clipPath>
</defs>
</svg>
