<svg width="145" height="140" viewBox="0 0 145 140" fill="none" xmlns="http://www.w3.org/2000/svg">
<g id="Property 1=Media fidelidade">
<path id="Vector" fill-rule="evenodd" clip-rule="evenodd" d="M95.8475 0.500444C94.7145 0.666221 92.3253 1.48676 90.9144 2.19471C83.3623 5.98325 77.9871 14.483 76.3612 25.2077C75.9814 27.7121 75.8407 32.123 76.0756 34.1525C77.0595 42.6533 81.0683 49.2247 87.0366 52.1203C88.9818 53.064 90.2367 53.3963 92.2087 53.4895C95.233 53.6325 97.8589 52.7428 101.403 50.3744C107.977 45.9809 112.467 38.1825 113.855 28.7476C114.173 26.588 114.236 21.9611 113.983 19.3604C113.426 13.6387 111.453 8.91023 108.133 5.34348C104.744 1.70289 100.111 -0.123482 95.8475 0.500444ZM43.2439 1.04714C38.0506 2.00008 33.4185 6.2107 31.0201 12.1587C30.4051 13.6837 29.9132 15.639 29.5971 17.8152C29.3026 19.843 29.2648 24.8606 29.5285 26.9386C30.5652 35.1089 33.8884 42.3502 38.8547 47.2604C41.6041 49.9786 44.7831 51.975 48.324 53.2068C49.3247 53.5549 49.6004 53.5877 51.4717 53.5822C53.8906 53.575 54.9754 53.3335 57.0902 52.3316C63.3988 49.3433 67.4607 41.4435 67.4538 32.1759C67.4482 24.4002 65.0019 16.3164 60.9466 10.6721C57.4824 5.85071 53.0066 2.61948 48.0063 1.33018C46.7436 1.00471 44.2753 0.858025 43.2439 1.04714ZM129.551 42.3132C124.716 42.8304 119.581 45.555 115.686 49.67C111.187 54.4231 108.335 60.4898 107.121 67.8878C106.779 69.9685 106.755 70.3904 106.819 73.1214C106.88 75.7042 106.937 76.2809 107.255 77.5408C108.163 81.1313 109.632 83.9182 111.828 86.2175C113.618 88.0916 115.276 89.1241 117.627 89.8289C121.344 90.9431 127.026 89.6684 131.35 86.7499C138.78 81.7367 143.828 72.4557 144.534 62.5128L144.645 60.9568L144.694 62.7249C144.736 64.2561 144.75 64.3414 144.796 63.3615C144.873 61.7201 144.572 57.5027 144.266 55.9221C143.232 50.5917 140.349 46.1799 136.378 43.8521C135.285 43.2119 133.324 42.5596 131.91 42.3663C130.816 42.2167 130.517 42.2099 129.551 42.3132ZM11.5621 45.4066C7.71681 46.1025 4.20707 48.5145 2.25905 51.8001C1.27513 53.4594 0.641306 55.481 0.192916 58.389C0.00252674 59.6245 -0.0305721 60.6019 0.0231781 63.4104C0.0821619 66.4958 0.133225 67.0989 0.465486 68.6441C1.56355 73.7497 3.94906 78.8699 7.03277 82.7398C8.05629 84.0243 10.2534 86.2179 11.5263 87.2263C14.5741 89.6406 18.7831 91.6677 22.0616 92.3C23.4996 92.5774 25.8861 92.5117 27.2134 92.1584C28.7436 91.751 30.4421 90.8731 31.7968 89.7893C35.6226 86.7282 37.4865 82.364 37.7073 75.9503C37.8834 70.8295 36.8011 65.9129 34.4375 61.0983C31.2512 54.6081 26.2408 49.5086 20.2536 46.6624C17.3928 45.3024 14.471 44.8802 11.5621 45.4066ZM71.3452 72.9068C60.9919 73.6697 49.9426 79.6267 43.4859 87.9261C37.2855 95.8962 32.5132 104.577 29.6668 113.061C28.8228 115.577 27.361 121.343 27.1338 123.052C26.5803 127.217 28.1061 131.732 31.1624 134.972C34.398 138.402 38.2178 139.778 43.407 139.384C47.6662 139.061 50.109 138.401 58.9685 135.179C66.4826 132.447 68.5575 131.901 73.3277 131.4C78.3302 130.875 82.2051 131.309 87.1873 132.954C88.4321 133.365 91.7738 134.639 94.6134 135.783C97.4529 136.929 100.508 138.139 101.403 138.475C107.746 140.85 114.818 139.874 119.09 136.034C121.335 134.015 122.534 131.396 122.734 128.074C122.99 123.832 122.309 120.477 120.136 115.258C118.28 110.8 116.626 107.776 113.18 102.543C107.931 94.5684 104.082 89.6031 99.8478 85.3447C93.5815 79.0419 87.434 75.2001 81.1051 73.6311C78.4661 72.9771 74.4432 72.6785 71.3452 72.9068Z" fill="#C5CACE"/>
</g>
</svg>
