<svg width="145" height="140" viewBox="0 0 145 140" fill="none" xmlns="http://www.w3.org/2000/svg">
<g id="Property 1=Default">
<path id="Vector" fill-rule="evenodd" clip-rule="evenodd" d="M95.8475 0.1205C94.7145 0.286277 92.3253 1.10682 90.9144 1.81476C83.3623 5.6033 77.9871 14.1031 76.3612 24.8278C75.9814 27.3321 75.8407 31.743 76.0756 33.7725C77.0595 42.2734 81.0683 48.8448 87.0366 51.7404C88.9818 52.6841 90.2367 53.0164 92.2087 53.1096C95.233 53.2526 97.8589 52.3629 101.403 49.9945C107.977 45.601 112.467 37.8025 113.855 28.3676C114.173 26.208 114.236 21.5811 113.983 18.9805C113.426 13.2587 111.453 8.53029 108.133 4.96354C104.744 1.32295 100.111 -0.503426 95.8475 0.1205ZM43.2439 0.667197C38.0506 1.62013 33.4185 5.83075 31.0201 11.7788C30.4051 13.3037 29.9132 15.2591 29.5971 17.4353C29.3026 19.4631 29.2648 24.4807 29.5285 26.5587C30.5652 34.729 33.8884 41.9703 38.8547 46.8805C41.6041 49.5987 44.7831 51.5951 48.324 52.8268C49.3247 53.1749 49.6004 53.2077 51.4717 53.2022C53.8906 53.195 54.9754 52.9536 57.0902 51.9517C63.3988 48.9633 67.4607 41.0636 67.4538 31.7959C67.4482 24.0202 65.0019 15.9365 60.9466 10.2922C57.4824 5.47077 53.0066 2.23953 48.0063 0.950234C46.7436 0.624762 44.2753 0.478081 43.2439 0.667197ZM129.551 41.9332C124.716 42.4505 119.581 45.1751 115.686 49.2901C111.187 54.0431 108.335 60.1098 107.121 67.5078C106.779 69.5885 106.755 70.0105 106.819 72.7414C106.88 75.3242 106.937 75.9009 107.255 77.1608C108.163 80.7513 109.632 83.5383 111.828 85.8375C113.618 87.7117 115.276 88.7441 117.627 89.449C121.344 90.5631 127.026 89.2884 131.35 86.3699C138.78 81.3567 143.828 72.0758 144.534 62.1328L144.645 60.5769L144.694 62.345C144.736 63.8762 144.75 63.9615 144.796 62.9815C144.873 61.3401 144.572 57.1227 144.266 55.5422C143.232 50.2117 140.349 45.8 136.378 43.4722C135.285 42.832 133.324 42.1796 131.91 41.9864C130.816 41.8367 130.517 41.83 129.551 41.9332ZM11.5621 45.0267C7.71681 45.7226 4.20707 48.1346 2.25905 51.4201C1.27513 53.0794 0.641306 55.101 0.192916 58.0091C0.00252674 59.2446 -0.0305721 60.222 0.0231781 63.0305C0.0821619 66.1159 0.133225 66.719 0.465486 68.2642C1.56355 73.3697 3.94906 78.49 7.03277 82.3599C8.05629 83.6444 10.2534 85.8379 11.5263 86.8463C14.5741 89.2607 18.7831 91.2878 22.0616 91.9201C23.4996 92.1974 25.8861 92.1318 27.2134 91.7785C28.7436 91.3711 30.4421 90.4931 31.7968 89.4094C35.6226 86.3483 37.4865 81.984 37.7073 75.5704C37.8834 70.4495 36.8011 65.533 34.4375 60.7183C31.2512 54.2281 26.2408 49.1287 20.2536 46.2825C17.3928 44.9224 14.471 44.5002 11.5621 45.0267ZM71.3452 72.5268C60.9919 73.2898 49.9426 79.2467 43.4859 87.5462C37.2855 95.5162 32.5132 104.197 29.6668 112.681C28.8228 115.197 27.361 120.963 27.1338 122.673C26.5803 126.837 28.1061 131.352 31.1624 134.592C34.398 138.022 38.2178 139.398 43.407 139.004C47.6662 138.681 50.109 138.021 58.9685 134.799C66.4826 132.067 68.5575 131.521 73.3277 131.02C78.3302 130.495 82.2051 130.929 87.1873 132.574C88.4321 132.986 91.7738 134.259 94.6134 135.404C97.4529 136.549 100.508 137.76 101.403 138.095C107.746 140.47 114.818 139.494 119.09 135.654C121.335 133.635 122.534 131.016 122.734 127.694C122.99 123.452 122.309 120.097 120.136 114.878C118.28 110.42 116.626 107.396 113.18 102.163C107.931 94.1885 104.082 89.2232 99.8478 84.9648C93.5815 78.662 87.434 74.8201 81.1051 73.2512C78.4661 72.5971 74.4432 72.2985 71.3452 72.5268Z" fill="#8A77B9"/>
</g>
</svg>
